<svg height="436pt" viewBox="-22 0 436 436.07824" width="436pt" xmlns="http://www.w3.org/2000/svg"><path d="m242.550781 123.277344c-5.132812-1.800782-10.375-3.277344-15.695312-4.414063l-3.34375 15.648438c4.652343.992187 9.238281 2.285156 13.726562 3.863281zm0 0"/><path d="m209.40625 132.460938 1.3125-15.941407c-5.410156-.445312-10.847656-.550781-16.273438-.320312l.691407 16c4.757812-.210938 9.523437-.121094 14.269531.261719zm0 0"/><path d="m257.566406 129.679688-7.199218 14.285156c4.25 2.136718 8.359374 4.542968 12.304687 7.203125l8.96875-13.257813c-4.511719-3.039062-9.210937-5.789062-14.074219-8.230468zm0 0"/><path d="m147.128906 127.496094c-4.960937 2.25-9.773437 4.816406-14.402344 7.6875l8.425782 13.597656c4.039062-2.503906 8.238281-4.746094 12.566406-6.710938zm0 0"/><path d="m178.230469 117.925781c-5.355469.929688-10.648438 2.191407-15.847657 3.785157l4.6875 15.296874c4.550782-1.398437 9.1875-2.507812 13.878907-3.3125zm0 0"/><path d="m328.039062 244.078125c0-3.664063-.160156-7.304687-.464843-10.894531l-15.933594 1.292968c.253906 3.152344.398437 6.34375.398437 9.601563 0 1.601563 0 3.152344-.097656 4.710937l16 .671876c.097656-1.78125.097656-3.574219.097656-5.382813zm0 0"/><path d="m302.136719 290.214844c-1.964844 4.332031-4.199219 8.535156-6.699219 12.582031l13.601562 8.417969c2.855469-4.632813 5.417969-9.441406 7.664063-14.402344zm0 0"/><path d="m326.222656 265.679688-15.785156-2.6875c-.796875 4.6875-1.890625 9.324218-3.269531 13.878906l15.296875 4.671875c1.589844-5.203125 2.84375-10.5 3.757812-15.863281zm0 0"/><path d="m325.175781 217.054688c-1.136719-5.324219-2.621093-10.566407-4.441406-15.695313l-15.078125 5.335937c1.578125 4.480469 2.875 9.054688 3.878906 13.695313zm0 0"/><path d="m292.839844 181.300781c2.65625 3.9375 5.0625 8.039063 7.199218 12.28125l14.28125-7.199219c-2.457031-4.855468-5.21875-9.546874-8.273437-14.046874zm0 0"/><path d="m284.535156 147.925781-10.566406 12c3.558594 3.15625 6.925781 6.53125 10.070312 10.105469l12-10.59375c-3.589843-4.074219-7.433593-7.917969-11.503906-11.511719zm0 0"/><path d="m74.589844 218.476562c-1.699219 8.429688-2.554688 17.003907-2.550782 25.601563-.042968 25.507813 7.570313 50.4375 21.855469 71.566406 2.472657 3.667969 7.449219 4.632813 11.113281 2.160157 3.664063-2.46875 4.632813-7.445313 2.160157-11.109376-12.507813-18.484374-19.171875-40.300781-19.128907-62.617187 0-7.523437.75-15.027344 2.238282-22.398437.886718-4.332032-1.910156-8.5625-6.242188-9.445313-4.332031-.882813-8.558594 1.910156-9.445312 6.242187zm0 0"/><path d="m127.894531 329.757812c-2.179687-1.886718-5.203125-2.453124-7.917969-1.484374-2.714843.96875-4.699218 3.320312-5.195312 6.160156s.574219 5.726562 2.800781 7.558594c46.886719 39.554687 115.277344 40.171874 162.863281 1.460937l22.707032 14.800781c1.292968.855469 2.8125 1.308594 4.367187 1.304688 2.933594-.003906 5.632813-1.609375 7.027344-4.191406 1.398437-2.582032 1.269531-5.71875-.332031-8.175782l-84.847656-130.113281c-.800782-.75-1.582032-1.527344-2.335938-2.328125l-46.152344-30.097656c-2.394531-1.667969-5.507812-1.902344-8.125-.609375-2.617187 1.292969-4.320312 3.910156-4.445312 6.828125-.125 2.914062 1.347656 5.667968 3.84375 7.183594l37.886718 24.710937-31.3125 31.3125-58.6875-90 28.097657 18.320313c2.394531 1.664062 5.507812 1.890624 8.121093.59375 2.613282-1.300782 4.3125-3.917969 4.433594-6.832032.121094-2.917968-1.355468-5.667968-3.851562-7.179687l-59.929688-39.078125c-3.167968-2.050782-7.335937-1.613282-10.007812 1.058594-2.667969 2.667968-3.109375 6.839843-1.054688 10.003906l84.863282 130.113281c.800781.753906 1.582031 1.527344 2.335937 2.328125l93.273437 60.800781c-41.617187 30.703125-98.859374 28.847657-138.402343-4.480469zm62.144531-64.367187 31.3125-31.3125 57.976563 88.902344-.394531.386719zm0 0"/><path d="m92.589844 200.078125c2.09375-.03125 4.097656-.863281 5.601562-2.320313.726563-.777343 1.320313-1.671874 1.757813-2.640624.410156-.960938.625-1.992188.632812-3.039063-.023437-2.136719-.882812-4.175781-2.398437-5.679687-3.183594-2.957032-8.105469-2.957032-11.289063 0-1.511719 1.507812-2.375 3.546874-2.398437 5.679687.011718 1.046875.230468 2.078125.640625 3.039063.429687.972656 1.023437 1.867187 1.75 2.640624 1.535156 1.476563 3.574219 2.308594 5.703125 2.320313zm0 0"/><path d="m181.398438 2.398438c-.757813.75-1.355469 1.648437-1.757813 2.640624-.390625.964844-.582031 2-.5625 3.039063-.019531 2.113281.804687 4.148437 2.292969 5.652344 1.488281 1.503906 3.511718 2.347656 5.628906 2.347656 2.128906.023437 4.175781-.8125 5.679688-2.320313 1.503906-1.503906 2.339843-3.550781 2.320312-5.679687.015625-1.039063-.175781-2.074219-.5625-3.039063-.433594-.972656-1.027344-1.867187-1.757812-2.640624-3.175782-2.960938-8.105469-2.960938-11.28125 0zm0 0"/><path d="m8.039062 308.078125h10.9375c1.910157 5.433594 4 10.777344 6.398438 16h-9.335938c-4.417968 0-8 3.582031-8 8s3.582032 8 8 8h17.601563c34.351563 59.253906 97.585937 95.808594 166.078125 96 5.28125 0 10.601562-.214844 15.921875-.65625 61.121094-5.023437 116.171875-38.921875 148.167969-91.242187 31.996094-52.320313 37.089844-116.773438 13.710937-173.46875-1.058593-2.691407-3.484375-4.601563-6.351562-4.996094-2.863281-.398438-5.71875.78125-7.464844 3.085937-1.75 2.300781-2.117187 5.371094-.96875 8.019531 34.710937 84.246094-.582031 181.054688-81.363281 223.195313-80.785156 42.140625-180.375 15.691406-229.605469-60.976563 2.605469-1.351562 4.25-4.027343 4.273437-6.960937 0-4.417969-3.582031-8-8-8h-4.847656c-2.652344-5.210937-5.039062-10.550781-7.152344-16h4c4.417969 0 8-3.582031 8-8s-3.582031-8-8-8h-9.351562c-3.097656-11.007813-5.128906-22.289063-6.0625-33.6875-6.480469-78.90625 40.53125-152.429687 114.871094-179.660156 74.34375-27.230469 157.71875-1.472657 203.742187 62.949219 1.636719 2.394531 4.441407 3.71875 7.332031 3.457031 2.890626-.261719 5.414063-2.070313 6.589844-4.722657 1.175782-2.65625.824219-5.738281-.921875-8.054687-32.175781-44.628906-81.84375-73.433594-136.558593-79.199219 8.160156-6.292968 12.765624-16.148437 12.363281-26.445312-.398438-10.296875-5.761719-19.757813-14.386719-25.398438-3.691406-2.429687-8.65625-1.4062498-11.085938 2.285156-2.429687 3.691407-1.40625 8.65625 2.285157 11.085938 6.375 4.207031 8.882812 12.335938 5.992187 19.40625s-10.378906 11.113281-17.875 9.648438c-7.496094-1.464844-12.914062-8.023438-12.933594-15.664063 0-4.417969-3.582031-8-8-8-4.417968 0-8 3.582031-8 8 .035157 9.8125 4.59375 19.058594 12.351563 25.0625-103.914063 10.640625-180.230469 102.4375-171.71875 206.546875.90625 10.929688 2.738281 21.765625 5.472656 32.390625h-6.105469c-4.417968 0-7.9999995 3.582031-7.9999995 8s3.5820315 8 7.9999995 8zm0 0"/></svg>