<?xml version="1.0" encoding="UTF-8" standalone="no"?>
<!-- Generator: Adobe Illustrator 18.1.1, SVG Export Plug-In . SVG Version: 6.00 Build 0)  -->

<svg
   xmlns:dc="http://purl.org/dc/elements/1.1/"
   xmlns:cc="http://creativecommons.org/ns#"
   xmlns:rdf="http://www.w3.org/1999/02/22-rdf-syntax-ns#"
   xmlns:svg="http://www.w3.org/2000/svg"
   xmlns="http://www.w3.org/2000/svg"
   xmlns:sodipodi="http://sodipodi.sourceforge.net/DTD/sodipodi-0.dtd"
   xmlns:inkscape="http://www.inkscape.org/namespaces/inkscape"
   version="1.1"
   id="Capa_1"
   x="0px"
   y="0px"
   viewBox="0 0 53.265 53.265"
   style="enable-background:new 0 0 53.265 53.265;"
   xml:space="preserve"
   sodipodi:docname="backpacker.svg"
   inkscape:version="0.92.3 (2405546, 2018-03-11)"><metadata
   id="metadata45"><rdf:RDF><cc:Work
       rdf:about=""><dc:format>image/svg+xml</dc:format><dc:type
         rdf:resource="http://purl.org/dc/dcmitype/StillImage" /></cc:Work></rdf:RDF></metadata><defs
   id="defs43" /><sodipodi:namedview
   pagecolor="#ffffff"
   bordercolor="#666666"
   borderopacity="1"
   objecttolerance="10"
   gridtolerance="10"
   guidetolerance="10"
   inkscape:pageopacity="0"
   inkscape:pageshadow="2"
   inkscape:window-width="1920"
   inkscape:window-height="986"
   id="namedview41"
   showgrid="false"
   inkscape:zoom="4.4306769"
   inkscape:cx="26.6325"
   inkscape:cy="26.6325"
   inkscape:window-x="-11"
   inkscape:window-y="-11"
   inkscape:window-maximized="1"
   inkscape:current-layer="Capa_1" />
<g
   id="g8"
   transform="matrix(-1,0,0,1,53.266018,0)">
	<g
   id="g6">
		<path
   style="fill:#010002"
   d="m 43.726,25.36 c -0.183,-2.3 -0.365,-4.598 -0.547,-6.897 -0.223,-2.807 -2.578,-5.037 -5.443,-4.881 -0.912,0.049 -1.775,0.357 -2.521,0.844 -1.244,-0.303 -2.526,-0.401 -3.799,-0.098 -0.113,0.027 -0.218,0.067 -0.327,0.099 -1.652,-4.215 -8.533,-4.112 -9.78,0.369 -2.638,2.852 -5.94,4.956 -9.672,6.17 -3.712,1.208 -2.123,7.082 1.618,5.864 3.018,-0.982 5.736,-2.373 8.177,-4.146 0.285,2.983 0.756,5.941 1.415,8.901 -4.126,5.785 -5.955,12.145 -4.818,19.474 0.599,3.866 6.458,2.22 5.863,-1.616 -0.79,-5.099 0.66,-9.758 3.488,-13.838 0.084,0.002 0.168,0.006 0.252,0.002 1.104,5.055 2.365,10.069 3.775,15.047 1.066,3.768 6.935,2.166 5.863,-1.615 -1.647,-5.816 -3.102,-11.684 -4.322,-17.604 0.134,-0.681 0.13,-1.43 -0.055,-2.237 -0.091,-0.398 -0.172,-0.797 -0.252,-1.193 0.43,0.191 0.869,0.369 1.329,0.513 0.138,0.042 0.265,0.062 0.386,0.068 0.986,1.414 2.627,2.321 4.487,2.222 2.762,-0.153 5.105,-2.64 4.883,-5.448 z M 31.967,24.016 c -0.282,-2.117 -0.444,-4.239 -0.495,-6.416 0.5,-0.217 1.031,-0.328 1.586,-0.344 -0.174,0.561 -0.253,1.156 -0.203,1.77 0.157,1.991 0.314,3.981 0.475,5.972 -0.502,-0.272 -0.954,-0.602 -1.363,-0.982 z"
   id="path2"
   inkscape:connector-curvature="0" />
		<circle
   style="fill:#010002"
   cx="23.625999"
   cy="5.1550002"
   r="5.1550002"
   id="circle4" />
	</g>
</g>
<g
   id="g10">
</g>
<g
   id="g12">
</g>
<g
   id="g14">
</g>
<g
   id="g16">
</g>
<g
   id="g18">
</g>
<g
   id="g20">
</g>
<g
   id="g22">
</g>
<g
   id="g24">
</g>
<g
   id="g26">
</g>
<g
   id="g28">
</g>
<g
   id="g30">
</g>
<g
   id="g32">
</g>
<g
   id="g34">
</g>
<g
   id="g36">
</g>
<g
   id="g38">
</g>
</svg>