<?xml version="1.0" encoding="UTF-8" standalone="no"?>
<!-- Generator: Adobe Illustrator 18.0.0, SVG Export Plug-In . SVG Version: 6.00 Build 0)  -->

<svg
   xmlns:dc="http://purl.org/dc/elements/1.1/"
   xmlns:cc="http://creativecommons.org/ns#"
   xmlns:rdf="http://www.w3.org/1999/02/22-rdf-syntax-ns#"
   xmlns:svg="http://www.w3.org/2000/svg"
   xmlns="http://www.w3.org/2000/svg"
   xmlns:sodipodi="http://sodipodi.sourceforge.net/DTD/sodipodi-0.dtd"
   xmlns:inkscape="http://www.inkscape.org/namespaces/inkscape"
   version="1.1"
   id="Capa_1"
   x="0px"
   y="0px"
   viewBox="0 0 479.331 479.331"
   style="enable-background:new 0 0 479.331 479.331;"
   xml:space="preserve"
   sodipodi:docname="avatar_ico_one.svg"
   inkscape:version="0.92.3 (2405546, 2018-03-11)"><metadata
   id="metadata94"><rdf:RDF><cc:Work
       rdf:about=""><dc:format>image/svg+xml</dc:format><dc:type
         rdf:resource="http://purl.org/dc/dcmitype/StillImage" /><dc:title></dc:title></cc:Work></rdf:RDF></metadata><defs
   id="defs92" /><sodipodi:namedview
   pagecolor="#ffffff"
   bordercolor="#666666"
   borderopacity="1"
   objecttolerance="10"
   gridtolerance="10"
   guidetolerance="10"
   inkscape:pageopacity="0"
   inkscape:pageshadow="2"
   inkscape:window-width="1920"
   inkscape:window-height="986"
   id="namedview90"
   showgrid="false"
   inkscape:zoom="0.84707555"
   inkscape:cx="222.69096"
   inkscape:cy="263.44231"
   inkscape:window-x="-11"
   inkscape:window-y="-11"
   inkscape:window-maximized="1"
   inkscape:current-layer="g57" />
<g
   id="g57">
	<path
   d="M381.583,254.929l-62.151-18.54c-4.027,5.029-8.235,9.61-12.566,13.842l23.937,7.139   c-13.201,29.714-48.749,51.118-90.834,51.118c-42.163,0-77.775-21.466-90.912-51.274l23.397-6.967   c-4.34-4.231-8.547-8.813-12.559-13.841l-62.104,18.524c-13.904,4.145-23.437,16.922-23.437,31.435v0.133   c0,0.079-0.04,0.157-0.04,0.25V314c0,91.311,74.014,165.331,165.333,165.331c85.665,0,156.096-65.145,164.479-148.606   c0.587-5.621,0.891-11.331,0.891-17.108v-27.252C405.017,271.852,395.485,259.074,381.583,254.929z"
   id="path53" />
	<path
   d="m 239.64648,0 c -55.099,0 -100.77915,44.337313 -106.53515,102.07031 -8.374,3.385 -14.70231,11.16716 -17.44531,21.53516 -2.589,9.813 -1.90994,21.24636 1.91406,32.19336 6.013,17.29 18.82344,29.98894 32.77344,32.83594 17.304,37.159 49.18596,75.20117 89.29296,75.20117 40.084,0 71.93372,-37.98824 89.26172,-75.11524 13.747,-2.69 26.74199,-15.46987 32.83399,-32.92187 8.219,-23.655 1.36964,-46.94752 -15.56836,-53.72852 C 340.42583,44.337313 294.73548,0 239.64648,0 Z m 57.25782,41.224609 0.63086,6.302735 c 0.806,7.875 3.00456,15.547297 6.47656,22.654297 l 19.60156,40.083979 c 2.29997,9.18194 8.03105,7.55585 15.55469,7.20118 0.14,0.033 0.25489,0.0637 0.33789,0.0937 7.466,2.597 11.89984,16.67212 6.33984,32.70312 -5.029,14.372 -15.21722,22.12891 -22.44922,22.12891 h -0.008 c -3.526,0.266 -6.516,1.93859 -7.875,5.05859 -8.336,19.112 -20.95576,38.74027 -36.38476,52.32227 v -28.54102 c 0,-10.416 -8.46877,-18.88476 -18.88477,-18.88476 h -40.88086 c -10.408,0 -18.8789,8.46876 -18.8789,18.88476 v 28.83008 c -15.576,-13.59 -28.31313,-33.36633 -36.70313,-52.61133 -1.337,-3.073 -4.72494,-5.05859 -8.08594,-5.05859 -7.039,0 -17.20379,-7.75691 -22.21679,-22.12891 -2.683,-7.718 -3.24544,-15.85842 -1.52344,-22.35742 0.82,-3.136 2.93875,-8.6487 7.84375,-10.3457 0.085,-0.031 0.20651,-0.0627 0.35351,-0.0977 7.44249,4.44993 15.60547,-7.13672 15.60547,-7.13672 l 19.63477,-40.144529 c 3.479,-7.107 5.6758,-14.780297 6.4668,-22.654297 l 0.625,-6.107422 c 12.645,6.569 33.31292,10.908203 57.04492,10.908203 23.975,0 44.8,-4.434516 57.375,-11.103516 z M 239.51367,194.97656 h 0.14649 c 0.11,2.346 0.99537,11.3676 8.60937,13.8086 7.21,2.306 14.4287,3.34748 18.2207,6.89648 v 20.53516 c 0,1.142 -0.27248,2.18826 -0.64648,3.19726 -5.325,3.033 -10.90208,5.15475 -16.70508,6.34375 h -0.11719 v -12.63867 c 0,-2.948 -2.39946,-5.34766 -5.35546,-5.34766 h -8.04688 c -2.956,0 -5.34766,2.39966 -5.34766,5.34766 v 12.63867 h -0.125 c -5.661,-1.158 -11.12012,-3.17756 -16.32812,-6.10156 -0.423,-1.064 -0.70508,-2.22045 -0.70508,-3.43945 v -21.0586 c 3.926,-3.174 10.90102,-4.17604 17.79102,-6.37304 7.615,-2.44 8.49937,-11.4616 8.60937,-13.8086 z"
   id="path55"
   inkscape:connector-curvature="0"
   sodipodi:nodetypes="sccccscccscccccccscccssssccsccccccccscccccscccsssscccscccc" />
</g>
<g
   id="g59">
</g>
<g
   id="g61">
</g>
<g
   id="g63">
</g>
<g
   id="g65">
</g>
<g
   id="g67">
</g>
<g
   id="g69">
</g>
<g
   id="g71">
</g>
<g
   id="g73">
</g>
<g
   id="g75">
</g>
<g
   id="g77">
</g>
<g
   id="g79">
</g>
<g
   id="g81">
</g>
<g
   id="g83">
</g>
<g
   id="g85">
</g>
<g
   id="g87">
</g>
</svg>