<?xml version="1.0" encoding="UTF-8" standalone="no"?>
<!-- Generator: Adobe Illustrator 18.0.0, SVG Export Plug-In . SVG Version: 6.00 Build 0)  -->

<svg
   xmlns:dc="http://purl.org/dc/elements/1.1/"
   xmlns:cc="http://creativecommons.org/ns#"
   xmlns:rdf="http://www.w3.org/1999/02/22-rdf-syntax-ns#"
   xmlns:svg="http://www.w3.org/2000/svg"
   xmlns="http://www.w3.org/2000/svg"
   xmlns:sodipodi="http://sodipodi.sourceforge.net/DTD/sodipodi-0.dtd"
   xmlns:inkscape="http://www.inkscape.org/namespaces/inkscape"
   version="1.1"
   id="Capa_1"
   x="0px"
   y="0px"
   viewBox="0 0 479.331 479.331"
   style="enable-background:new 0 0 479.331 479.331;"
   xml:space="preserve"
   sodipodi:docname="avatar_ico_two.svg"
   inkscape:version="0.92.3 (2405546, 2018-03-11)"><metadata
   id="metadata94"><rdf:RDF><cc:Work
       rdf:about=""><dc:format>image/svg+xml</dc:format><dc:type
         rdf:resource="http://purl.org/dc/dcmitype/StillImage" /><dc:title></dc:title></cc:Work></rdf:RDF></metadata><defs
   id="defs92" /><sodipodi:namedview
   pagecolor="#ffffff"
   bordercolor="#666666"
   borderopacity="1"
   objecttolerance="10"
   gridtolerance="10"
   guidetolerance="10"
   inkscape:pageopacity="0"
   inkscape:pageshadow="2"
   inkscape:window-width="1920"
   inkscape:window-height="986"
   id="namedview90"
   showgrid="false"
   inkscape:zoom="0.94959113"
   inkscape:cx="47.408344"
   inkscape:cy="279.61827"
   inkscape:window-x="-11"
   inkscape:window-y="-11"
   inkscape:window-maximized="1"
   inkscape:current-layer="g57" />
<g
   id="g57">
	<path
   d="M381.583,254.929l-62.151-18.54c-4.027,5.029-8.235,9.61-12.566,13.842l23.937,7.139   c-13.201,29.714-48.749,51.118-90.834,51.118c-42.163,0-77.775-21.466-90.912-51.274l23.397-6.967   c-4.34-4.231-8.547-8.813-12.559-13.841l-62.104,18.524c-13.904,4.145-23.437,16.922-23.437,31.435v0.133   c0,0.079-0.04,0.157-0.04,0.25V314c0,91.311,74.014,165.331,165.333,165.331c85.665,0,156.096-65.145,164.479-148.606   c0.587-5.621,0.891-11.331,0.891-17.108v-27.252C405.017,271.852,395.485,259.074,381.583,254.929z"
   id="path53" />
	<path
   d="M 239.64648 0 C 184.54748 0 138.86733 44.337315 133.11133 102.07031 C 124.73733 105.45531 118.40902 113.23747 115.66602 123.60547 C 113.07702 133.41847 113.75608 144.85183 117.58008 155.79883 C 123.59308 173.08883 136.40352 185.78777 150.35352 188.63477 C 167.65752 225.79377 199.53948 263.83594 239.64648 263.83594 C 279.73048 263.83594 311.5802 225.8477 328.9082 188.7207 C 342.6552 186.0307 355.65019 173.25083 361.74219 155.79883 C 369.96119 132.14383 363.11183 108.85131 346.17383 102.07031 C 340.42583 44.337315 294.73548 0 239.64648 0 z M 296.9043 41.224609 L 297.53516 47.527344 C 298.34116 55.402344 300.53972 63.074641 304.01172 70.181641 L 323.61328 110.26562 C 325.91325 119.44756 331.64433 117.82147 339.16797 117.4668 C 339.30797 117.4998 339.42286 117.53055 339.50586 117.56055 C 346.97186 120.15755 351.4057 134.23267 345.8457 150.26367 C 340.8167 164.63567 330.62848 172.39258 323.39648 172.39258 L 323.38867 172.39258 C 319.86267 172.65858 316.87267 174.33117 315.51367 177.45117 C 307.17767 196.56317 294.55791 216.19144 279.12891 229.77344 L 279.12891 220.19531 L 266.49023 220.19531 L 266.49023 236.2168 C 266.49023 237.3588 266.21775 238.40506 265.84375 239.41406 C 260.51875 242.44706 254.94167 244.56881 249.13867 245.75781 L 249.02148 245.75781 L 249.02148 233.11914 C 249.02148 230.17114 246.62202 227.77148 243.66602 227.77148 L 235.61914 227.77148 C 232.66314 227.77148 230.27148 230.17114 230.27148 233.11914 L 230.27148 245.75781 L 230.14648 245.75781 C 224.48548 244.59981 219.02636 242.58025 213.81836 239.65625 C 213.39536 238.59225 213.11328 237.4358 213.11328 236.2168 L 213.11328 220.19531 L 200.48438 220.19531 L 200.48438 230.0625 C 184.90838 216.4725 172.17125 196.69617 163.78125 177.45117 C 162.44425 174.37817 159.05631 172.39258 155.69531 172.39258 C 148.65631 172.39258 138.49152 164.63567 133.47852 150.26367 C 130.79552 142.54567 130.23308 134.40525 131.95508 127.90625 C 132.77508 124.77025 134.89383 119.25755 139.79883 117.56055 C 139.88383 117.52955 140.00534 117.49789 140.15234 117.46289 C 147.59483 121.91282 155.75781 110.32617 155.75781 110.32617 L 175.39258 70.181641 C 178.87158 63.074641 181.06838 55.401344 181.85938 47.527344 L 182.48438 41.419922 C 195.12938 47.988922 215.7973 52.328125 239.5293 52.328125 C 263.5043 52.328125 284.3293 47.893609 296.9043 41.224609 z "
   id="path55" />
</g>
<g
   id="g59">
</g>
<g
   id="g61">
</g>
<g
   id="g63">
</g>
<g
   id="g65">
</g>
<g
   id="g67">
</g>
<g
   id="g69">
</g>
<g
   id="g71">
</g>
<g
   id="g73">
</g>
<g
   id="g75">
</g>
<g
   id="g77">
</g>
<g
   id="g79">
</g>
<g
   id="g81">
</g>
<g
   id="g83">
</g>
<g
   id="g85">
</g>
<g
   id="g87">
</g>
</svg>