<svg height="480pt" viewBox="0 0 480 480" width="480pt" xmlns="http://www.w3.org/2000/svg"><path d="m160 64h-96c-4.421875 0-8 3.582031-8 8s3.578125 8 8 8h96c4.417969 0 8-3.582031 8-8s-3.582031-8-8-8zm0 0"/><path d="m197.679688 66.320312c-.765626-.722656-1.664063-1.292968-2.640626-1.679687-2.980468-1.253906-6.421874-.589844-8.722656 1.679687-.722656.765626-1.292968 1.660157-1.679687 2.640626-1.425781 3.347656-.410157 7.238281 2.46875 9.464843 2.882812 2.226563 6.902343 2.226563 9.785156 0 2.878906-2.226562 3.894531-6.117187 2.46875-9.464843-.40625-.96875-.976563-1.863282-1.679687-2.640626zm0 0"/><path d="m160 304h-96c-4.421875 0-8 3.582031-8 8s3.578125 8 8 8h96c4.417969 0 8-3.582031 8-8s-3.582031-8-8-8zm0 0"/><path d="m197.679688 306.320312c-3.210938-2.960937-8.152344-2.960937-11.363282 0-.703125.777344-1.273437 1.671876-1.679687 2.640626-1.273438 2.976562-.609375 6.429687 1.679687 8.71875.78125.707031 1.671875 1.273437 2.640625 1.679687 2.976563 1.277344 6.433594.613281 8.722657-1.679687 2.289062-2.289063 2.953124-5.742188 1.679687-8.71875-.40625-.96875-.976563-1.863282-1.679687-2.640626zm0 0"/><path d="m437.652344 154.34375c-1.496094-1.5-3.53125-2.34375-5.652344-2.34375h-168v-144c0-4.417969-3.582031-8-8-8h-32c-4.421875 0-8 3.582031-8 8v24h-168c-2.125 0-4.15625.84375-5.65625 2.34375l-40 40c-3.125 3.125-3.125 8.1875 0 11.3125l40 40c1.5 1.5 3.53125 2.34375 5.65625 2.34375h168v144h-168c-2.125 0-4.15625.84375-5.65625 2.34375l-40 40c-3.125 3.125-3.125 8.1875 0 11.3125l40 40c1.5 1.5 3.53125 2.34375 5.65625 2.34375h168v48h-8c-22.082031.027344-39.976562 17.917969-40 40v8h-32c-4.421875 0-8 3.582031-8 8s3.578125 8 8 8h208c4.417969 0 8-3.582031 8-8s-3.582031-8-8-8h-32v-8c-.027344-22.082031-17.921875-39.972656-40-40h-8v-168h168c2.121094 0 4.15625-.84375 5.652344-2.34375l40-40c3.125-3.125 3.125-8.1875 0-11.3125zm-386.34375-42.34375-32-32 32-32h164.691406v64zm0 240-32-32 32-32h164.691406v64zm244.691406 104v8h-112v-8c0-13.253906 10.742188-24 24-24h64c13.253906 0 24 10.746094 24 24zm-64-40v-400h16v400zm196.6875-184h-164.6875v-64h164.6875l32 32zm0 0"/><path d="m416 184h-96c-4.421875 0-8 3.582031-8 8s3.578125 8 8 8h96c4.417969 0 8-3.582031 8-8s-3.582031-8-8-8zm0 0"/><path d="m291.039062 184.640625c-1.945312-.871094-4.164062-.898437-6.132812-.082031s-3.511719 2.410156-4.269531 4.402344c-1.273438 2.996093-.605469 6.464843 1.691406 8.773437s5.761719 2.996094 8.765625 1.738281c3.003906-1.261718 4.941406-4.214844 4.90625-7.472656-.03125-2.117188-.859375-4.148438-2.320312-5.679688-.753907-.742187-1.652344-1.3125-2.640626-1.679687zm0 0"/><path d="m392 480c4.417969 0 8-3.582031 8-8s-3.582031-8-8-8h-16c-4.421875 0-8 3.582031-8 8s3.578125 8 8 8zm0 0"/><path d="m104 480c4.417969 0 8-3.582031 8-8s-3.582031-8-8-8h-32c-4.421875 0-8 3.582031-8 8s3.578125 8 8 8zm0 0"/></svg>