<svg height="464pt" viewBox="-56 0 464 464" width="464pt" xmlns="http://www.w3.org/2000/svg"><path d="m168 64h-8c.933594 10.28125 6.933594 19.417969 16 24.359375v-24.359375zm0 0" fill="#a97c50"/><path d="m176 64v24.359375c7.183594 4.742187 15.546875 7.386719 24.152344 7.640625h7.847656c17.671875 0 32-14.328125 32-32zm0 0" fill="#b38b63"/><path d="m160 64h-48v32l8.351562-.070312c17.519532-.144532 39.648438-14.394532 39.648438-31.929688zm0 0" fill="#a97c50"/><path d="m208 96h-7.847656c-8.605469-.253906-16.96875-2.898438-24.152344-7.640625v103.640625c19.433594.046875 37.820312-8.792969 49.921875-24 9.121094-11.335938 14.089844-25.449219 14.078125-40v-64c0 17.671875-14.328125 32-32 32zm0 0" fill="#efebe5"/><path d="m160 64c0 17.527344-22.128906 31.777344-39.648438 31.921875l-8.351562.078125v32c-.011719 14.550781 4.957031 28.664062 14.082031 40 12.097657 15.207031 30.484375 24.046875 49.917969 24v-103.640625c-9.066406-4.941406-15.066406-14.078125-16-24.359375zm0 0" fill="#ebe5dd"/><path d="m104 104c-8.808594.066406-15.933594 7.191406-16 16 .027344 8.824219 7.175781 15.972656 16 16h8v-32zm0 0" fill="#bcbec0"/><path d="m240 136h8c8.824219-.027344 15.972656-7.175781 16-16-.066406-8.808594-7.191406-15.933594-16-16h-8zm0 0" fill="#bcbec0"/><path d="m159.039062 272.960938c-4.507812-4.492188-7.039062-10.597657-7.039062-16.960938v-32h-24v68.800781c0 17.375-7.066406 34.003907-19.574219 46.0625l-36.425781 35.136719v90h104v-184c-6.363281 0-12.46875-2.53125-16.960938-7.039062zm0 0" fill="#00aeef"/><path d="m243.574219 338.871094c-12.507813-12.0625-19.574219-28.691406-19.574219-46.070313v-68.800781h-24v32c0 13.253906-10.746094 24-24 24v184h104v-90zm0 0" fill="#1cb7f1"/><path d="m72 374v-39.375c0-4.242188 1.6875-8.3125 4.6875-11.3125l.570312-.570312c12-12 18.742188-28.28125 18.742188-45.253907v-49.410156c-56.5625 14.511719-96.0820312 65.527344-96 123.921875v80h72zm0 0" fill="#83d8f4"/><path d="m224 224c2.753906 0 5.484375.089844 8.199219.265625-2.710938-.167969-5.445313-.265625-8.199219-.265625zm0 0" fill="#ffcd00"/><path d="m232.480469 224.289062c7.941406.535157 15.8125 1.804688 23.519531 3.789063v49.410156c0 16.972657 6.742188 33.253907 18.742188 45.253907l.570312.570312c3 3 4.6875 7.070312 4.6875 11.3125v97.375h72v-80c.082031-67.433594-52.230469-123.332031-119.519531-127.710938zm0 0" fill="#91dcf5"/><path d="m0 432h72v32h-72zm0 0" fill="#0b7"/><path d="m280 432h72v32h-72zm0 0" fill="#0b7"/><path d="m96 228.078125c10.453125-2.703125 21.203125-4.074219 32-4.078125h24v-36.640625c-10.136719-4.15625-19.054688-10.816406-25.917969-19.359375h-54.082031c-26.507812 0-48 21.492188-48 48v61.28125c17.507812-24.320312 42.984375-41.730469 72-49.203125zm0 0" fill="#1b75bc"/><path d="m200 187.359375v36.640625h24c2.753906 0 5.488281.097656 8.199219.265625h.28125c38.15625 2.535156 73.183593 21.976563 95.519531 53.015625v-61.28125c0-26.507812-21.488281-48-48-48h-54.078125c-6.867187 8.542969-15.785156 15.203125-25.921875 19.359375zm0 0" fill="#3484c3"/><path d="m152 187.359375v68.640625c0 13.253906 10.746094 24 24 24v-88c-8.222656-.007812-16.367188-1.582031-24-4.640625zm0 0" fill="#d9ccbc"/><path d="m176 192v88c13.253906 0 24-10.746094 24-24v-68.640625c-7.632812 3.058594-15.777344 4.632813-24 4.640625zm0 0" fill="#ddd2c3"/><path d="m96 277.488281c0 16.972657-6.742188 33.253907-18.742188 45.253907l-.570312.570312c-3 3-4.6875 7.070312-4.6875 11.3125v39.375l36.425781-35.128906c12.507813-12.0625 19.574219-28.691406 19.574219-46.070313v-68.800781c-10.796875.003906-21.546875 1.375-32 4.078125zm0 0" fill="#ff5023"/><path d="m224 224v68.800781c0 17.375 7.070312 34.003907 19.574219 46.0625l36.425781 35.136719v-39.375c0-4.242188-1.6875-8.3125-4.6875-11.3125l-.570312-.570312c-12-12-18.742188-28.28125-18.742188-45.253907v-49.410156c-7.707031-1.984375-15.578125-3.253906-23.519531-3.789063h-.28125c-2.707031-.191406-5.441407-.289062-8.199219-.289062zm0 0" fill="#ff5023"/><path d="m168 0c-29.160156.0273438-54.613281 19.765625-61.902344 48h-34.097656c-4.417969 0-8 3.582031-8 8s3.582031 8 8 8h104v-64zm0 0" fill="#ff6243"/><path d="m248 64c0-35.347656-28.652344-64-64-64h-8v64zm0 0" fill="#ff7358"/></svg>